<svg xmlns="http://www.w3.org/2000/svg" version="1.1" height="16px" width="16px" viewBox="0 0 192 192">
  <defs>
  <linearGradient id="grey" x1="0%" x2="0%" y1="0%" y2="100%">
  <stop offset="0%" style="stop-color:#8C8C8C; stop-opacity:1"/>
  <stop offset="100%" style="stop-color:#4B4B4B; stop-opacity:1"/>
  </linearGradient>
  </defs>
  <path style="fill:url(#grey);fill-opacity:0.3;stroke:#4B4B4B;stroke-width:8" d="m 22,30 148,0 a 12 12 0 0 1 12,12  l 0,108 a 12,12 0 0 1 -12,12 l -148,0 a 12,12 0 0 1 -12,-12 l 0,-108 a 12,12 0 0 1 12,-12 z"/>
  <path style="fill:#4B4B4B;" d="m 102,112 a 40,40 0 1 1 10,-10 l 45,45 -10,10 z m -55,-33 a 32,32 1 1 0 0,-0.01 z"/>
</svg>
