<svg xmlns="http://www.w3.org/2000/svg" version="1.1" height="32px" width="32px" viewBox="0 0 192 192">
  <defs>
  <linearGradient id="telinkrin" x1="0%" x2="0%" y1="0%" y2="100%">
  <stop offset="0%" style="stop-color:#b2ced6; stop-opacity:1"/>
  <stop offset="100%" style="stop-color:#6da5b7; stop-opacity:1"/>
  </linearGradient>
  </defs>
  <path style="fill:url(#telinkrin);fill-opacity:0.3;stroke:#6da5b7;stroke-width:3;" d="m 42,30 108,0 a 12 12 0 0 1 12,12  l 0,108 a 12,12 0 0 1 -12,12 l -108,0 a 12,12 0 0 1 -12,-12 l 0,-108 a 12,12 0 0 1 12,-12 z"/>
  <path style="fill:none;stroke:#b2ced6;stroke-width:3;" d="m 33,96 28,0 3,-18 10,60 13,-39 2,12 3,-18 4,24 10,-60 5,30 6,-36 13,39 3,-18 13,39 2.5,-15 10.5,0"/>
</svg>
