<?xml version="1.0" encoding="UTF-8"?>
<svg xmlns="http://www.w3.org/2000/svg" version="1.1" height="32px" width="32px" viewBox="0 0 192 192">
 <defs>
  <linearGradient id="90ssummer" x1="0%" x2="0%" y1="0%" y2="100%">
    <stop offset="0%" style="stop-color:#f618c7; stop-opacity:1"/>
    <stop offset="100%" style="stop-color:#94ffab; stop-opacity:1"/>
    <stop offset="0%" style="stop-color:#fbfd54; stop-opacity:1"/>
    <stop offset="100%" style="stop-color:#0f83ae; stop-opacity:1"/>
  </linearGradient>
 </defs>
  <path style="fill:url(#90ssummer);stroke:none;" d="m 30,30 132 0 0 132 -132 0 z m 8 12 0 12 12 0 0 -12 z m 0 24 0 12 12 0 0 -12 z m 0 24 0 12 12 0 0 -12 z m 0 24 0 12 12 0 0 -12 z m 0 24 0 12 12 0 0 -12 z m 104 -98  0 12 12 0 0 -12 z m 0 24 0 12 12 0 0 -12 z m 0 24 0 12 12 0 0 -12 z m 0 24 0 12 12 0 0 -12 z m 0 24 0 12 12 0 0 -12 z"/>
  <path style="fill:#94ffab;stroke:none;" d="m 96 60 a 18 18 0 0 1 0 72  a 18 18 0 0 1 0 -72 z m -12 12 0 48 32 -24 z"/>
</svg>
