<svg xmlns="http://www.w3.org/2000/svg" version="1.1" height="24px" width="24px" viewBox="0 0 192 192">
  <defs>
  <linearGradient id="telinkrin" x1="0%" x2="0%" y1="0%" y2="100%">
  <stop offset="0%" style="stop-color:#b2ced6; stop-opacity:1"/>
  <stop offset="100%" style="stop-color:#6da5b7; stop-opacity:1"/>
  </linearGradient>
  </defs>
  <path style="fill:url(#telinkrin);stroke:none;" d="m 22,30 48,0 a 6 6 0 0 1 6,6 a 6 6 0 0 0 6,6 l 88,0 a 12 12 0 0 1 12,12  l 0,96 a 12,12 0 0 1 -12,12 l -148,0 a 12,12 0 0 1 -12,-12 l 0,-108 a 12,12 0 0 1 12,-12 z"/>
  <g transform="scale(3.0) translate(0,-4)">
  <path style="fill:#003748" d="M 29.476,29 V 29.004 L 29.254,31.637 A 7.9283,7.8567 0 0 0 26.937,32.965 L 24.523,31.836 22,36.168 24.195,37.68 A 7.9283,7.8567 0 0 0 24.07,39.004 7.9283,7.8567 0 0 0 24.187,40.336 L 22,41.836 24.523,46.168 26.933,45.039 A 7.9283,7.8567 0 0 0 29.257,46.363 L 29.476,49 H 34.523 L 34.746,46.367 A 7.9283,7.8567 0 0 0 37.062,45.039 L 39.476,46.164 42,41.836 39.809,40.328 A 7.9283,7.8567 0 0 0 39.926,39 7.9283,7.8567 0 0 0 39.809,37.672 L 41.997,36.164 39.477,31.836 37.063,32.961 A 7.9283,7.8567 0 0 0 34.743,31.641 L 34.524,29 H 29.477 Z M 32,35 A 4,4 0 0 1 36,39 4,4 0 0 1 32,43 4,4 0 0 1 28,39 4,4 0 0 1 32,35 Z"/>
  </g>
</svg>
