<svg xmlns="http://www.w3.org/2000/svg" version="1.1" height="24px" width="24px" viewBox="0 0 192 192">
  <defs>
  <linearGradient id="bark" x1="0%" x2="0%" y1="0%" y2="100%">
  <stop offset="0%" style="stop-color:#9D9D87; stop-opacity:1"/>
  <stop offset="100%" style="stop-color:#52523F; stop-opacity:1"/>
  </linearGradient>
  </defs>
  <path style="fill:url(#bark);stroke:none" d="m 22,30 48,0 a 6 6 0 0 1 6,6 a 6 6 0 0 0 6,6 l 88,0 a 12 12 0 0 1 12,12  l 0,96 a 12,12 0 0 1 -12,12 l -148,0 a 12,12 0 0 1 -12,-12 l 0,-108 a 12,12 0 0 1 12,-12 z"/>
  <g transform="scale(3.0) translate(0,-4)">
  <path style="fill:#2E2E02" d="M 30,29 V 37 H 26 L 32,45 38,37 H 34 V 29 Z M 24,45 V 49 H 40 V 45 Z"/>
  </g>
</svg>
