<?xml version="1.0" encoding="UTF-8"?>
<svg xmlns="http://www.w3.org/2000/svg" version="1.1" height="24px" width="24px" viewBox="0 0 192 192">
 <defs>
  <linearGradient id="oomox" x1="0%" x2="0%" y1="0%" y2="100%">
    <stop offset="0%" style="stop-color:#a4d8d4; stop-opacity:1"/>
    <stop offset="100%" style="stop-color:#318c85; stop-opacity:1"/>
  </linearGradient>
 </defs>
  <path style="fill:url(#oomox);stroke:none" d="m 22,30 48,0 a 6 6 0 0 1 6,6 a 6 6 0 0 0 6,6 l 88,0 a 12 12 0 0 1 12,12  l 0,96 a 12,12 0 0 1 -12,12 l -148,0 a 12,12 0 0 1 -12,-12 l 0,-108 a 12,12 0 0 1 12,-12 z"/>
</svg>
