<?xml version="1.0" encoding="UTF-8"?>
<svg xmlns="http://www.w3.org/2000/svg" version="1.1" height="32px" width="32px" viewBox="0 0 192 192">
  <defs>
  <linearGradient id="bark" x1="0%" x2="0%" y1="0%" y2="100%">
  <stop offset="0%" style="stop-color: #9D9D87; stop-opacity: 1"/>
  <stop offset="100%" style="stop-color: #52523F; stop-opacity: 1"/>
  </linearGradient>
  </defs>
  <path style="fill:url(#bark);fill-opacity:0.3;stroke:#52523F;stroke-width:8;" d="m 22,30 148,0 a 12 12 0 0 1 12,12  l 0,108 a 12,12 0 0 1 -12,12 l -148,0 a 12,12 0 0 1 -12,-12 l 0,-108 a 12,12 0 0 1 12,-12 z"/>
  <path style="fill:none;stroke:#52523F;stroke-width:8;" d="m 0,178 192 0m -96 0 0 -20"/>
  <path style="fill:url(#bark);stroke:none;" d="m 40 138 100 0 a 20 20 0 0 0 0 -40 a 20 20 0 0 0 -20 -20 a 20 20 0 0 0 -40 0 a 20 20 0 0 0 -30 30 a 15 15 0 0 0 -10 30 z" />
</svg>
