<svg xmlns="http://www.w3.org/2000/svg" version="1.1" height="32px" width="32px" viewBox="0 0 192 192">
  <defs>
  <linearGradient id="bark" x1="0%" x2="0%" y1="0%" y2="100%">
  <stop offset="0%" style="stop-color: #9D9D87; stop-opacity: 1"/>
  <stop offset="100%" style="stop-color: #52523F; stop-opacity: 1"/>
  </linearGradient>
  </defs>
  <path style="fill:url(#bark);stroke:none;" d="m 96,8 a 88 88 1 1 0 0.1,0 z m 0,16 a 72 72 1 1 1 -0.1,0 z"/>
  <path style="fill:url(#bark);stroke:none;" d="m 52,137 a 60 60 1 1 1 66,15 c 0 -10 10 -20 10 -30 c 0 -15 0 -30 17 -43 c 4 -4 4 -10 -6 -10 c 0 -16 -4 -20 -12 -12 l -20 16 q -5 4 -5 2 c -5 -2 -15 0 -22 6 q -3 4 -6 4 c -20 5 -25 5 -3 19 c -3 7 -7 16 -8 20 q -3 6 -10 12 z"/>
  <path style="fill:url(#bark);stroke:none;" d="m 98 80 q -5 -2 -10 7 q 5 2 10 -7 z"/>
</svg>
