<svg xmlns="http://www.w3.org/2000/svg" version="1.1" height="64px" width="64px" viewBox="0 0 192 192">
  <defs>
  <linearGradient id="telinkrin" x1="0%" x2="0%" y1="0%" y2="100%">
  <stop offset="0%" style="stop-color:#b2ced6; stop-opacity:1"/>
  <stop offset="100%" style="stop-color:#6da5b7; stop-opacity:1"/>
  </linearGradient>
  </defs>
  <path style="fill:url(#telinkrin);stroke:none;" d="m 22,30 48,0 a 6 6 0 0 1 6,6 a 6 6 0 0 0 6,6 l 88,0 a 12 12 0 0 1 12,12  l 0,96 a 12,12 0 0 1 -12,12 l -148,0 a 12,12 0 0 1 -12,-12 l 0,-108 a 12,12 0 0 1 12,-12 z"/>
  <g transform="scale(3.0) translate(0,-4)">
  <path style="fill:#003748" d="M 32 27 A 12 12 0 0 0 20 39 A 12 12 0 0 0 32 51 A 12 12 0 0 0 44 39 A 12 12 0 0 0 32 27 z M 32 30 A 9 9 0 0 1 41 39 A 9 9 0 0 1 32 48 A 9 9 0 0 1 23 39 A 9 9 0 0 1 32 30 z M 30 33 L 30 41 L 38 41 L 38 38 L 33 38 L 33 33 L 30 33 z"/>
  </g>
</svg>
