<svg xmlns="http://www.w3.org/2000/svg" version="1.1" height="64px" width="64px" viewBox="0 0 192 192">
  <defs>
  <linearGradient id="telinkrin" x1="0%" x2="0%" y1="0%" y2="100%">
  <stop offset="0%" style="stop-color:#b2ced6; stop-opacity:1"/>
  <stop offset="100%" style="stop-color:#6da5b7; stop-opacity:1"/>
  </linearGradient>
  </defs>
  <path style="fill:url(#telinkrin);stroke:none;" d="m 22,30 48,0 a 6 6 0 0 1 6,6 a 6 6 0 0 0 6,6 l 88,0 a 12 12 0 0 1 12,12  l 0,96 a 12,12 0 0 1 -12,12 l -148,0 a 12,12 0 0 1 -12,-12 l 0,-108 a 12,12 0 0 1 12,-12 z"/>
  <g transform="scale(3.0) translate(0,-4)">
  <path style="fill:#003748" d="M 25.5 29 C 24.669 29 24 29.669 24 30.5 L 24 42 L 25 42 L 25 41 L 26 41 L 26 31 L 34 31 L 34 35 L 38 35 L 38 47 L 38 48 L 39 48 L 39 47 L 40 47 L 40 34 L 35 29 L 25.5 29 z M 39 48 L 39 49 L 40 49 L 40 48 L 39 48 z M 38 48 L 37 48 L 37 49 L 38 49 L 38 48 z M 37 48 L 37 47 L 36 47 L 36 48 L 37 48 z M 36 48 L 35 48 L 35 49 L 36 49 L 36 48 z M 35 48 L 35 47 L 34 47 L 34 48 L 35 48 z M 34 48 L 33 48 L 33 49 L 34 49 L 34 48 z M 33 48 L 33 47 L 32 47 L 32 48 L 33 48 z M 32 48 L 31 48 L 31 49 L 32 49 L 32 48 z M 31 48 L 31 47 L 30 47 L 30 48 L 31 48 z M 30 48 L 29 48 L 29 49 L 30 49 L 30 48 z M 29 48 L 29 47 L 28 47 L 28 48 L 29 48 z M 28 48 L 27 48 L 27 49 L 28 49 L 28 48 z M 27 48 L 27 47 L 26 47 L 26 48 L 27 48 z M 26 48 L 25 48 L 25 49 L 26 49 L 26 48 z M 25 48 L 25 47 L 24 47 L 24 48 L 25 48 z M 25 47 L 26 47 L 26 46 L 25 46 L 25 47 z M 25 46 L 25 45 L 24 45 L 24 46 L 25 46 z M 25 45 L 26 45 L 26 44 L 25 44 L 25 45 z M 25 44 L 25 43 L 24 43 L 24 44 L 25 44 z M 25 43 L 26 43 L 26 42 L 25 42 L 25 43 z"/>
  </g>
</svg>
