<svg xmlns="http://www.w3.org/2000/svg" version="1.1" height="64px" width="64px" viewBox="0 0 192 192">
  <defs>
  <linearGradient id="bark" x1="0%" x2="0%" y1="0%" y2="100%">
  <stop offset="0%" style="stop-color:#9D9D87; stop-opacity:1"/>
  <stop offset="100%" style="stop-color:#52523F; stop-opacity:1"/>
  </linearGradient>
  </defs>
  <path style="fill:url(#bark);stroke:none" d="m 22,30 48,0 a 6 6 0 0 1 6,6 a 6 6 0 0 0 6,6 l 88,0 a 12 12 0 0 1 12,12  l 0,96 a 12,12 0 0 1 -12,12 l -148,0 a 12,12 0 0 1 -12,-12 l 0,-108 a 12,12 0 0 1 12,-12 z"/>
  <g transform="scale(3.0) translate(0,-4)">
  <path style="fill:#2E2E02" d="M 22.5 31 C 21.669 31 21 31.669 21 32.5 L 21 45.5 C 21 46.331 21.669 47 22.5 47 L 37.5 47 C 38.331 47 39 46.331 39 45.5 L 39 39 L 39 32.5 C 39 31.669 38.331 31 37.5 31 L 22.5 31 z M 39 39 L 45 45 L 45 33 L 39 39 z"/>
  </g>
</svg>
