<svg xmlns="http://www.w3.org/2000/svg" version="1.1" height="64px" width="64px" viewBox="0 0 192 192">
  <defs>
  <linearGradient id="bark" x1="0%" x2="0%" y1="0%" y2="100%">
  <stop offset="0%" style="stop-color:#9D9D87; stop-opacity:1"/>
  <stop offset="100%" style="stop-color:#52523F; stop-opacity:1"/>
  </linearGradient>
  </defs>
  <path style="fill:url(#bark);stroke:none" d="m 22,30 48,0 a 6 6 0 0 1 6,6 a 6 6 0 0 0 6,6 l 88,0 a 12 12 0 0 1 12,12  l 0,96 a 12,12 0 0 1 -12,12 l -148,0 a 12,12 0 0 1 -12,-12 l 0,-108 a 12,12 0 0 1 12,-12 z"/>
  <g transform="scale(3.0) translate(0,-4)">
  <path style="fill:#2E2E02" d="M 26.66,27.8 20,31.8 25.34,35.8 19.98,39.8 26.66,43.8 32,39.8 25.34,35.8 32,31.8 38.66,35.8 32,39.8 37.34,43.8 44.02,39.8 38.66,35.8 44,31.8 37.34,27.8 32,31.8 Z M 32,41 26.66,45 25.34,44.2 V 45 L 32,49 38.66,45 V 44.2 L 37.34,45 Z"/>
  </g>
</svg>
