<?xml version="1.0" encoding="UTF-8"?>
<svg xmlns="http://www.w3.org/2000/svg" version="1.1" height="256px" width="256px" viewBox="0 0 192 192">
 <defs>
  <linearGradient id="60spsycho" x1="0%" x2="0%" y1="0%" y2="100%">
    <stop offset="0%" style="stop-color:#df5940; stop-opacity:1"/>
    <stop offset="100%" style="stop-color:#d8d15f; stop-opacity:1"/>
    <stop offset="0%" style="stop-color:#e9882a; stop-opacity:1"/>
    <stop offset="100%" style="stop-color:#279362; stop-opacity:1"/>
  </linearGradient>
 </defs>
  <path style="fill:url(#60spsycho);stroke:none;" d="m 30,30 132 0 0 132 -132 0 z m 8 12 0 12 12 0 0 -12 z m 0 24 0 12 12 0 0 -12 z m 0 24 0 12 12 0 0 -12 z m 0 24 0 12 12 0 0 -12 z m 0 24 0 12 12 0 0 -12 z m 104 -98  0 12 12 0 0 -12 z m 0 24 0 12 12 0 0 -12 z m 0 24 0 12 12 0 0 -12 z m 0 24 0 12 12 0 0 -12 z m 0 24 0 12 12 0 0 -12 z"/>
  <path style="fill:#d8d15f;stroke:none;" d="m 96 60 a 18 18 0 0 1 0 72  a 18 18 0 0 1 0 -72 z m -12 12 0 48 32 -24 z"/>
</svg>
