<svg xmlns="http://www.w3.org/2000/svg" version="1.1" height="48px" width="48px" viewBox="0 0 192 192">
  <defs>
  <linearGradient id="sage" x1="0%" x2="0%" y1="0%" y2="100%">
  <stop offset="0%" style="stop-color: #919D87; stop-opacity: 1"/>
  <stop offset="100%" style="stop-color: #49594C; stop-opacity: 1"/>
  </linearGradient>
  </defs>
  <path style="fill:url(#sage);fill-opacity:0.3;stroke:#49594C;stroke-width:4" d="m 22,30 148,0 a 12 12 0 0 1 12,12  l 0,108 a 12,12 0 0 1 -12,12 l -148,0 a 12,12 0 0 1 -12,-12 l 0,-108 a 12,12 0 0 1 12,-12 z"/>
  <path style="fill:#49594C" d="m 50,76 92,0 a 32,52 0 0 1 -32,52 l -28,0 a 32,52 0 0 1 -32,-52 z"/>
  <path style="fill:#49594C" d="m 50,130 92,0 0,3 a 32,6 0 0 0 -32,6 l -28,0 a 32,6 0 0 0 -32,-6 z"/>
  <path style="fill:#49594C" d="m 144,76 a 32,52 0 0 1 -4,26  q 30,-26 4,-26 z m 4,4 q 12,0 -4,16 z "/>
</svg>
