<svg xmlns="http://www.w3.org/2000/svg" version="1.1" height="16px" width="16px" viewBox="0 0 192 192">
  <defs>
  <linearGradient id="telinkrin" x1="0%" x2="0%" y1="0%" y2="100%">
  <stop offset="0%" style="stop-color:#b2ced6; stop-opacity:1"/>
  <stop offset="100%" style="stop-color:#6da5b7; stop-opacity:1"/>
  </linearGradient>
  </defs>
  <path style="fill:url(#telinkrin);stroke:#6da5b7;stroke-width:8" d="m 42,30 108,0 a 12 12 0 0 1 12,12  l 0,108 a 12,12 0 0 1 -12,12 l -108,0 a 12,12 0 0 1 -12,-12 l 0,-108 a 12,12 0 0 1 12,-12 z"/>
  <path style="fill:none;stroke:#6da5b7;stroke-width:10px;" d="m 90,94 30 0"/>
  <path style="fill:#6da5b7;" d="m 78,92 a 12 12 0 1 1 -24 0 a 100 100 0 0 0 -5 -46 a 5 5 0 1 1 10 0 a 4 4 0 1 1 7 2 a 4 4 0 1 1 7 2 a 4 4 0 1 1 7 2 a 3 3 0 1 1 5 3 z"/>
</svg>
