<svg xmlns="http://www.w3.org/2000/svg" version="1.1" height="24px" width="24px" viewBox="0 0 192 192">
  <defs>
  <linearGradient id="grey" x1="0%" x2="0%" y1="0%" y2="100%">
  <stop offset="0%" style="stop-color:#8C8C8C; stop-opacity:1"/>
  <stop offset="100%" style="stop-color:#4B4B4B; stop-opacity:1"/>
  </linearGradient>
  </defs>
  <path style="fill:url(#grey);stroke:none;" d="m 22,30 48,0 a 6 6 0 0 1 6,6 a 6 6 0 0 0 6,6 l 88,0 a 12 12 0 0 1 12,12  l 0,96 a 12,12 0 0 1 -12,12 l -148,0 a 12,12 0 0 1 -12,-12 l 0,-108 a 12,12 0 0 1 12,-12 z"/>
  <g transform="scale(3.0) translate(0,-4)">
  <path style="fill:#212121" d="M 29,40.54 C 28.4,40.18 27.7,40 27,40 24.8,40 23,41.8 23,44 23,46.2 24.8,48 27,48 29.2,48 31,46.2 31,44 V 34 H 39 V 40.54 C 38.4,40.18 37.7,40 37,40 34.8,40 33,41.8 33,44 33,46.2 34.8,48 37,48 39.2,48 41,46.2 41,44 V 30 H 29"/>
  </g>
</svg>
