<svg xmlns="http://www.w3.org/2000/svg" version="1.1" height="32px" width="32px" viewBox="0 0 192 192">
  <defs>
  <linearGradient id="telinkrin" x1="0%" x2="0%" y1="0%" y2="100%">
  <stop offset="0%" style="stop-color:#b2ced6; stop-opacity:1"/>
  <stop offset="100%" style="stop-color:#6da5b7; stop-opacity:1"/>
  </linearGradient>
  </defs>
  <path style="fill:url(#telinkrin);stroke:none;" d="m 22,30 48,0 a 6 6 0 0 1 6,6 a 6 6 0 0 0 6,6 l 88,0 a 12 12 0 0 1 12,12  l 0,96 a 12,12 0 0 1 -12,12 l -148,0 a 12,12 0 0 1 -12,-12 l 0,-108 a 12,12 0 0 1 12,-12 z"/>
  <g transform="scale(3.0) translate(0,-4)">
  <path style="fill:#003748" d="M 25.5 29 C 24.669 29 24 29.669 24 30.5 L 24 47.5 C 24 48.331 24.669 49 25.5 49 L 38.5 49 C 39.331 49 40 48.331 40 47.5 L 40 34 L 35 29 L 25.5 29 z"/>
  </g>
</svg>
