<svg xmlns="http://www.w3.org/2000/svg" version="1.1" height="22px" width="22px" viewBox="0 0 192 192">
  <defs>
  <linearGradient id="bark" x1="0%" x2="0%" y1="0%" y2="100%">
  <stop offset="0%" style="stop-color:#9D9D87; stop-opacity:1"/>
  <stop offset="100%" style="stop-color:#52523F; stop-opacity:1"/>
  </linearGradient>
  </defs>
  <path style="fill:url(#bark);stroke:none" d="m 22,30 48,0 a 6 6 0 0 1 6,6 a 6 6 0 0 0 6,6 l 88,0 a 12 12 0 0 1 12,12  l 0,96 a 12,12 0 0 1 -12,12 l -148,0 a 12,12 0 0 1 -12,-12 l 0,-108 a 12,12 0 0 1 12,-12 z"/>
  <g transform="scale(3.0) translate(0,-4)">
  <path style="fill:#2E2E02" d="M 26.82,34.602 C 26.751,34.617 26.682,34.642 26.617,34.672 25.972,34.975 25.805,35.919 26.246,36.793 26.601,37.496 27.232,37.932 27.805,37.918 28.235,40.255 29.952,42 31.992,42 H 32.008 C 34.048,42 35.765,40.255 36.195,37.918 36.767,37.931 37.399,37.496 37.754,36.793 38.195,35.919 38.028,34.975 37.383,34.672 37.318,34.642 37.249,34.617 37.18,34.602 37.097,32.046 34.812,30 32,30 29.188,30 26.903,32.046 26.82,34.602 Z M 35.137,42.433 C 34.889,42.777 34.562,43.087 34.121,43.32 L 34.117,43.324 C 33.494,43.753 32.773,44 32.008,44 H 31.992 C 30.826,44 29.774,43.419 29,42.496 25.737,42.978 22.251,43.676 22.031,44.472 22.027,44.483 22.034,44.497 22.031,44.507 22.021,44.548 22.02,44.584 22.016,44.625 22.014,44.643 22,44.656 22,44.675 V 44.691 47.464 C 22,47.761 22.223,48 22.5,48 H 41.5 C 41.777,48 42,47.761 42,47.464 V 44.691 44.656 C 41.997,44.591 41.971,44.536 41.953,44.472 41.723,43.644 38.341,42.917 35.137,42.433 Z"/>
  </g>
</svg>
