<svg xmlns="http://www.w3.org/2000/svg" version="1.1" height="16px" width="16px" viewBox="0 0 192 192">
  <defs>
  <linearGradient id="telinkrin" x1="0%" x2="0%" y1="0%" y2="100%">
  <stop offset="0%" style="stop-color:#b2ced6; stop-opacity:1"/>
  <stop offset="100%" style="stop-color:#6da5b7; stop-opacity:1"/>
  </linearGradient>
  </defs>
  <path style="fill:url(#telinkrin);stroke:none;" d="m 22,30 48,0 a 6 6 0 0 1 6,6 a 6 6 0 0 0 6,6 l 88,0 a 12 12 0 0 1 12,12  l 0,96 a 12,12 0 0 1 -12,12 l -148,0 a 12,12 0 0 1 -12,-12 l 0,-108 a 12,12 0 0 1 12,-12 z"/>
  <g transform="scale(3.0) translate(0,-4)">
  <path style="fill:#003748" d="m 32,29.024709 c -5.54,0 -10,4.46 -10,10 0,4.466211 2.95902,8.22516 6.98535,9.516601 v -1.677417 c -2.531314,0.5586 -3.123045,-1.113282 -3.123045,-1.113282 -0.413988,-1.068275 -1.010743,-1.152462 -1.010743,-1.152462 -0.826287,-0.573213 0.06104,-0.563965 0.06104,-0.563965 0.9134,0.06524 1.394042,0.95459 1.394042,0.95459 0.811752,1.4129 2.189568,1.005742 2.708006,0.769042 0.08269,-0.597162 0.259759,-1.60705 0.519534,-1.838087 C 27.513559,43.686354 26,42.394209 26,38.850959 c 0,-1.009251 0.595875,-2.334671 1.178,-2.980548 -0.09387,-0.233875 -0.40761,-1.586795 0.08789,-2.859419 0,0 0.04774,-0.01503 0.146485,-0.01954 0.296125,-0.01387 0.96225,0.460581 2.265625,1.357956 0.78693,-0.226079 1.693295,-0.33179 2.322004,-0.336915 0.708915,-0.0059 1.429793,0.116113 2.169513,0.336915 1.30375,-0.897375 2.136641,-1.374147 2.431641,-1.360399 h 0.0025 c 0.09863,0.0046 0.146484,0.01954 0.146485,0.01954 0.49665,1.272575 0.183632,2.627986 0.09034,2.86186 C 37.423632,36.51641 38,37.841705 38,38.850958 c 0,3.552275 -2.276108,4.832682 -4.302858,5.061445 0.326258,0.2855 0.407716,0.851605 0.407716,1.713867 0,1.0414 -0.0026,1.7183 -0.0049,2.148438 V 48.7 c 4.320709,-1.105851 7.900023,-5.000397 7.900023,-9.675292 0,-5.54 -4.46,-10 -10,-10 z"/>
  </g>
</svg>
